<svg xmlns="http://www.w3.org/2000/svg" width="720" height="440" viewBox="0 0 720 440">
<rect width="720" height="440" fill="white"/>
<text x="360" y="24" text-anchor="middle" font-family="sans-serif" font-size="16" font-weight="bold">QLoRA Fine-Tuning — Loss Curves (Week 5 run)</text>
<line x1="60" y1="40" x2="60" y2="390" stroke="black"/>
<line x1="60" y1="390" x2="700" y2="390" stroke="black"/>
<line x1="60.0" y1="390" x2="60.0" y2="395" stroke="black"/>
<text x="60.0" y="410" text-anchor="middle" font-family="sans-serif" font-size="12">0</text>
<line x1="273.3" y1="390" x2="273.3" y2="395" stroke="black"/>
<text x="273.3" y="410" text-anchor="middle" font-family="sans-serif" font-size="12">1</text>
<line x1="486.7" y1="390" x2="486.7" y2="395" stroke="black"/>
<text x="486.7" y="410" text-anchor="middle" font-family="sans-serif" font-size="12">2</text>
<line x1="700.0" y1="390" x2="700.0" y2="395" stroke="black"/>
<text x="700.0" y="410" text-anchor="middle" font-family="sans-serif" font-size="12">3</text>
<text x="380" y="428" text-anchor="middle" font-family="sans-serif" font-size="13">epoch</text>
<line x1="55" y1="390.0" x2="60" y2="390.0" stroke="black"/>
<line x1="60" y1="390.0" x2="700" y2="390.0" stroke="#dddddd"/>
<text x="51" y="394.0" text-anchor="end" font-family="sans-serif" font-size="12">0.00</text>
<line x1="55" y1="320.0" x2="60" y2="320.0" stroke="black"/>
<line x1="60" y1="320.0" x2="700" y2="320.0" stroke="#dddddd"/>
<text x="51" y="324.0" text-anchor="end" font-family="sans-serif" font-size="12">0.50</text>
<line x1="55" y1="250.0" x2="60" y2="250.0" stroke="black"/>
<line x1="60" y1="250.0" x2="700" y2="250.0" stroke="#dddddd"/>
<text x="51" y="254.0" text-anchor="end" font-family="sans-serif" font-size="12">1.00</text>
<line x1="55" y1="180.0" x2="60" y2="180.0" stroke="black"/>
<line x1="60" y1="180.0" x2="700" y2="180.0" stroke="#dddddd"/>
<text x="51" y="184.0" text-anchor="end" font-family="sans-serif" font-size="12">1.50</text>
<line x1="55" y1="110.0" x2="60" y2="110.0" stroke="black"/>
<line x1="60" y1="110.0" x2="700" y2="110.0" stroke="#dddddd"/>
<text x="51" y="114.0" text-anchor="end" font-family="sans-serif" font-size="12">2.00</text>
<line x1="55" y1="40.0" x2="60" y2="40.0" stroke="black"/>
<line x1="60" y1="40.0" x2="700" y2="40.0" stroke="#dddddd"/>
<text x="51" y="44.0" text-anchor="end" font-family="sans-serif" font-size="12">2.50</text>
<text x="18" y="215" text-anchor="middle" font-family="sans-serif" font-size="13" transform="rotate(-90 18 215)">loss</text>
<polyline fill="none" stroke="#1f6fb2" stroke-width="2" points="82.0,56.7 104.0,140.9 126.1,194.9 148.1,239.0 170.1,285.6 192.1,332.0 214.2,354.7 236.2,360.7 258.2,368.2 279.9,367.6 302.0,371.0 324.0,369.5 346.0,372.0 368.0,373.1 390.0,374.2 412.1,374.6 434.1,379.8 456.1,383.5 478.1,373.8 499.9,379.9 521.9,382.4 543.9,376.5 565.9,374.3 588.0,376.9 610.0,384.1 632.0,381.4 654.0,381.4 676.1,382.0 698.1,380.3"/>
<polyline fill="none" stroke="#c0392b" stroke-width="2" points="273.3,374.6 486.7,381.4 700.0,382.1"/>
<circle cx="273.3" cy="374.6" r="4" fill="#c0392b"/><circle cx="486.7" cy="381.4" r="4" fill="#c0392b"/><circle cx="700.0" cy="382.1" r="4" fill="#c0392b"/>
<text x="273.3" y="364.6" text-anchor="middle" font-family="sans-serif" font-size="11" fill="#c0392b">0.1101</text>
<text x="486.7" y="371.4" text-anchor="middle" font-family="sans-serif" font-size="11" fill="#c0392b">0.0614</text>
<text x="700.0" y="372.1" text-anchor="middle" font-family="sans-serif" font-size="11" fill="#c0392b">0.0562</text>
<line x1="72" y1="50" x2="100" y2="50" stroke="#1f6fb2" stroke-width="2"/>
<text x="106" y="54" font-family="sans-serif" font-size="12">train loss (per 10 steps)</text>
<line x1="72" y1="68" x2="100" y2="68" stroke="#c0392b" stroke-width="2"/>
<text x="106" y="72" font-family="sans-serif" font-size="12">eval loss (per epoch)</text>
</svg>